<svg xmlns="http://www.w3.org/2000/svg" width="200" height="49" viewBox="0 0 200 49">
  <g id="InMeet_Logo_Without_Shadow" data-name="InMeet Logo_Without Shadow" transform="translate(-88 -72.5)">
    <rect id="Rectangle_574" data-name="Rectangle 574" width="200" height="49" rx="7" transform="translate(88 72.5)" fill="#fff"/>
    <g id="Group_2687" data-name="Group 2687" transform="translate(119 78.5)">
      <g id="Group_3024" data-name="Group 3024" transform="translate(40.475)">
        <path id="Path_13823" data-name="Path 13823" d="M568.264,113.03a34.908,34.908,0,0,0,4.355,5.3c.184.185.374.364.562.544.188-.18.377-.359.562-.544a34.929,34.929,0,0,0,4.355-5.3,27.118,27.118,0,0,1-4.917-6.641A26.8,26.8,0,0,1,570.1,93.876c0-.145,0-.29.005-.434-1.367-.011-6.241-.048-7.522.053,0,.149-.006.3-.006.445a34.06,34.06,0,0,0,5.691,19.09" transform="translate(-540.642 -83.062)" fill="#0c1f5b"/>
        <path id="Path_13824" data-name="Path 13824" d="M566.989,110.958a34.221,34.221,0,0,1-4.414-17.016c0-.149,0-.3.005-.445,1.281-.1,6.156-.065,7.522-.053,0,.145-.006.289-.006.434a26.917,26.917,0,0,0,.7,6.083,35.441,35.441,0,0,1-3.8,11" transform="translate(-540.644 -83.063)" fill="#007fff"/>
        <path id="Path_13825" data-name="Path 13825" d="M489.437,111.572a34.906,34.906,0,0,0,4.355,5.3c.185.185.374.364.562.544.188-.18.377-.359.562-.544a34.933,34.933,0,0,0,4.355-5.3,34.344,34.344,0,0,0,5.776-19.154c0-.149,0-.3-.005-.445a37.7,37.7,0,0,0-7.607.011c0,.145.005.289.005.434a26.8,26.8,0,0,1-3.086,12.513,27.119,27.119,0,0,1-4.917,6.641" transform="translate(-475.619 -81.603)" fill="#0c1f5b"/>
        <path id="Path_13826" data-name="Path 13826" d="M499.271,206.227a34.931,34.931,0,0,1-4.355,5.3c-.185.185-.374.364-.562.544-.188-.18-.377-.359-.562-.544a34.906,34.906,0,0,1-4.355-5.3,27.116,27.116,0,0,0,4.917-6.641q.346-.657.655-1.336.184.382.381.759a25.857,25.857,0,0,0,4.544,6.184q-.322.522-.663,1.034" transform="translate(-475.619 -176.258)" fill="#0c1f5b"/>
        <path id="Path_13827" data-name="Path 13827" d="M443.807,113.019a34.925,34.925,0,0,0,4.355,5.3c.185.185.374.364.562.544.188-.18.377-.359.562-.544a34.9,34.9,0,0,0,4.355-5.3,27.125,27.125,0,0,1-4.916-6.641,26.8,26.8,0,0,1-3.086-12.513c0-.145,0-.29,0-.435-1.367-.011-6.241-.048-7.522.054,0,.149-.006.3-.006.445a34.06,34.06,0,0,0,5.691,19.09" transform="translate(-429.991 -83.051)" fill="#007fff"/>
        <path id="Path_13828" data-name="Path 13828" d="M442.018,111A34.217,34.217,0,0,1,437.58,93.94c0-.149,0-.3.006-.445,1.281-.1,6.155-.065,7.522-.053,0,.145-.006.289-.006.434a26.921,26.921,0,0,0,.724,6.2A35.447,35.447,0,0,1,442.018,111" transform="translate(-429.515 -83.062)" fill="#0c1f5b"/>
        <path id="Path_13829" data-name="Path 13829" d="M364.872,111.572a34.915,34.915,0,0,0,4.355,5.3c.184.185.374.364.562.544.188-.18.377-.359.562-.544a34.934,34.934,0,0,0,4.355-5.3,34.343,34.343,0,0,0,5.776-19.154c0-.149,0-.3-.005-.445a37.7,37.7,0,0,0-7.607.011c0,.145.005.289.005.434a26.8,26.8,0,0,1-3.085,12.513,27.118,27.118,0,0,1-4.917,6.641" transform="translate(-364.872 -81.603)" fill="#007fff"/>
        <path id="Path_13830" data-name="Path 13830" d="M444.494,3.811A3.811,3.811,0,1,1,440.683,0a3.811,3.811,0,0,1,3.811,3.811" transform="translate(-428.885 0)" fill="#007fff"/>
        <path id="Path_13831" data-name="Path 13831" d="M569.058,3.811A3.811,3.811,0,1,1,565.247,0a3.811,3.811,0,0,1,3.811,3.811" transform="translate(-539.631 0)" fill="#0c1f5b"/>
      </g>
      <g id="Group_3025" data-name="Group 3025" transform="translate(0 5.847)">
        <path id="Path_13832" data-name="Path 13832" d="M0,52.709H7.3V82.677H0Z" transform="translate(0 -52.709)" fill="#007fff"/>
        <path id="Path_13833" data-name="Path 13833" d="M109.534,142.28V128.469a6.931,6.931,0,0,0-.376-2.5,1.385,1.385,0,0,0-1.394-.952,2.907,2.907,0,0,0-2.3,1.616,8.223,8.223,0,0,0-1.062,4.537V142.28H97.4V130.771a21.482,21.482,0,0,0-.376-4.4,15.171,15.171,0,0,0-.863-2.855,7.429,7.429,0,0,0-1.2-1.992l5.622-1.771a10.282,10.282,0,0,1,.8,1.018,6.614,6.614,0,0,1,.686,1.261,10.228,10.228,0,0,1,.553,1.748,7.1,7.1,0,0,1,3.165-3.054,9.988,9.988,0,0,1,4.4-.974q3.453,0,4.914,2.1a9.642,9.642,0,0,1,1.461,5.6V142.28Z" transform="translate(-84.435 -112.312)" fill="#007fff"/>
        <path id="Path_13834" data-name="Path 13834" d="M729.1,125.479a10.605,10.605,0,0,1,2.39-3.807,10.277,10.277,0,0,1,3.563-2.324,12.041,12.041,0,0,1,4.426-.8,10.837,10.837,0,0,1,3.541.509,6.362,6.362,0,0,1,2.39,1.416,5.625,5.625,0,0,1,1.372,2.125,7.669,7.669,0,0,1,.442,2.634,6.044,6.044,0,0,1-.8,3.01,7.914,7.914,0,0,1-2.28,2.5,13.131,13.131,0,0,1-3.585,1.793,20.134,20.134,0,0,1-4.759.93,4.347,4.347,0,0,0,1.129,2.147,3.4,3.4,0,0,0,2.5.819,10.627,10.627,0,0,0,2.081-.221q1.106-.221,2.036-.487,1.106-.309,2.169-.708l1.328,4.6a19.161,19.161,0,0,1-2.612,1.018q-1.195.355-2.766.664a17.3,17.3,0,0,1-3.342.31,12.077,12.077,0,0,1-4.626-.8,8.182,8.182,0,0,1-3.143-2.213,8.711,8.711,0,0,1-1.77-3.43,16.748,16.748,0,0,1-.553-4.449A14.752,14.752,0,0,1,729.1,125.479Zm8.056-1.439a3.407,3.407,0,0,0-.952,1.284,7.736,7.736,0,0,0-.531,1.771,14.317,14.317,0,0,0-.221,1.9,6.791,6.791,0,0,0,2.235-.4,4.663,4.663,0,0,0,1.483-.885,3.4,3.4,0,0,0,.841-1.151,2.935,2.935,0,0,0,.266-1.151,1.924,1.924,0,0,0-.465-1.35,1.572,1.572,0,0,0-1.217-.509A2.207,2.207,0,0,0,737.16,124.04Z" transform="translate(-647.457 -111.247)" fill="#007fff"/>
        <path id="Path_13835" data-name="Path 13835" d="M920.244,125.479a10.6,10.6,0,0,1,2.39-3.807,10.277,10.277,0,0,1,3.563-2.324,12.042,12.042,0,0,1,4.426-.8,10.836,10.836,0,0,1,3.541.509,6.364,6.364,0,0,1,2.39,1.416,5.62,5.62,0,0,1,1.372,2.125,7.666,7.666,0,0,1,.443,2.634,6.043,6.043,0,0,1-.8,3.01,7.913,7.913,0,0,1-2.28,2.5,13.13,13.13,0,0,1-3.585,1.793,20.135,20.135,0,0,1-4.759.93,4.346,4.346,0,0,0,1.129,2.147,3.4,3.4,0,0,0,2.5.819,10.627,10.627,0,0,0,2.081-.221q1.105-.221,2.036-.487,1.106-.309,2.169-.708l1.328,4.6a19.156,19.156,0,0,1-2.612,1.018q-1.195.355-2.766.664a17.3,17.3,0,0,1-3.342.31,12.077,12.077,0,0,1-4.626-.8A8.181,8.181,0,0,1,921.7,138.6a8.708,8.708,0,0,1-1.771-3.43,16.75,16.75,0,0,1-.553-4.449A14.748,14.748,0,0,1,920.244,125.479Zm8.056-1.439a3.405,3.405,0,0,0-.952,1.284,7.742,7.742,0,0,0-.531,1.771,14.337,14.337,0,0,0-.221,1.9,6.792,6.792,0,0,0,2.235-.4,4.664,4.664,0,0,0,1.483-.885,3.394,3.394,0,0,0,.841-1.151,2.934,2.934,0,0,0,.266-1.151,1.924,1.924,0,0,0-.465-1.35,1.572,1.572,0,0,0-1.217-.509A2.206,2.206,0,0,0,928.3,124.04Z" transform="translate(-817.395 -111.247)" fill="#007fff"/>
        <path id="Path_13836" data-name="Path 13836" d="M1099.748,76.952h3.63l.753-4.559,6.065-1.328v5.887h5.223l-.841,5.135h-4.382v9.871q0,1.948,2.036,1.948a9.953,9.953,0,0,0,2.125-.221l1.062-.266,1.2,4.692q-.886.31-2.457.686a16.721,16.721,0,0,1-3.829.376,8.677,8.677,0,0,1-5.2-1.372q-1.881-1.372-1.881-4.648V82.087h-3.5Z" transform="translate(-977.754 -69.029)" fill="#007fff"/>
      </g>
    </g>
  </g>
</svg>
